<svg aria-hidden="true" width="432" height="184"
    class="absolute -top-32 left-0 w-full sm:-top-5 sm:left-3/4 sm:ml-8 sm:w-auto md:left-2/3 lg:left-auto lg:right-2 lg:ml-0 xl:left-2/3 xl:right-auto">
    <defs>
        <symbol id=":S5:-0" width="40" height="40">
            <rect class="fill-blue-500" width="40" height="40" fill="#3B82F6"></rect>
            <circle class="fill-blue-600" cx="20" cy="20" r="13" fill="#2563EB"></circle>
        </symbol>
        <symbol id=":S5:-1" width="40" height="40">
            <circle class="fill-blue-300" cx="20" cy="20" r="20" fill="#93C5FD"></circle>
            <rect class="fill-blue-600" width="20" height="20" x="10" y="10" fill="#2563EB"></rect>
        </symbol>
    </defs>
    <use href="#:S5:-0" x="0" y="0"></use>
    <use href="#:S5:-1" x="56" y="0"></use>
    <use href="#:S5:-0" x="112" y="0"></use>
    <use href="#:S5:-1" x="168" y="0"></use>
    <use href="#:S5:-1" x="224" y="0"></use>
    <use href="#:S5:-0" x="280" y="0"></use>
    <use href="#:S5:-1" x="336" y="0"></use>
    <use href="#:S5:-0" x="392" y="0"></use>
    <use href="#:S5:-1" x="0" y="48"></use>
    <use href="#:S5:-0" x="56" y="48"></use>
    <use href="#:S5:-1" x="112" y="48"></use>
    <use href="#:S5:-1" x="168" y="48"></use>
    <use href="#:S5:-0" x="224" y="48"></use>
    <use href="#:S5:-0" x="280" y="48"></use>
    <use href="#:S5:-0" x="336" y="48"></use>
    <use href="#:S5:-1" x="392" y="48"></use>
    <use href="#:S5:-0" x="0" y="96"></use>
    <use href="#:S5:-1" x="56" y="96"></use>
    <use href="#:S5:-0" x="112" y="96"></use>
    <use href="#:S5:-1" x="168" y="96"></use>
    <use href="#:S5:-1" x="224" y="96"></use>
    <use href="#:S5:-0" x="280" y="96"></use>
    <use href="#:S5:-1" x="336" y="96"></use>
    <use href="#:S5:-0" x="392" y="96"></use>
    <use href="#:S5:-1" x="0" y="144"></use>
    <use href="#:S5:-0" x="56" y="144"></use>
    <use href="#:S5:-1" x="112" y="144"></use>
    <use href="#:S5:-1" x="168" y="144"></use>
    <use href="#:S5:-0" x="224" y="144"></use>
    <use href="#:S5:-0" x="280" y="144"></use>
    <use href="#:S5:-0" x="336" y="144"></use>
    <use href="#:S5:-1" x="392" y="144"></use>
</svg>